<svg xmlns="http://www.w3.org/2000/svg" xmlns:xlink="http://www.w3.org/1999/xlink" width="250" zoomAndPan="magnify" viewBox="0 0 187.5 97.5" height="130" preserveAspectRatio="xMidYMid meet" version="1.0"><path fill="#000000" d="M 181.089844 20.164062 C 181.089844 20.148438 181.089844 20.136719 181.09375 20.121094 C 158.6875 23.378906 135.925781 24.082031 113.246094 24.304688 C 89.816406 24.539062 66.359375 24.25 42.972656 25.757812 C 29.660156 26.617188 16.171875 27.902344 3.195312 30.679688 C 0.242188 31.3125 1.496094 35.625 4.488281 35.167969 C 16.285156 33.367188 28.09375 31.929688 40.046875 31.148438 C 51.644531 30.390625 63.269531 30.097656 74.898438 29.96875 C 98.050781 29.722656 121.226562 30.171875 144.359375 29.144531 C 150.738281 28.859375 157.109375 28.457031 163.464844 27.894531 C 169.847656 27.328125 176.441406 26.839844 182.710938 25.601562 C 186.785156 24.796875 185.074219 19.164062 181.089844 20.164062 " fill-opacity="1" fill-rule="nonzero"/><path fill="#000000" d="M 149.410156 33.195312 C 141.21875 32.734375 133 32.964844 124.796875 33.105469 C 117.429688 33.226562 110.0625 33.394531 102.699219 33.609375 C 87.558594 34.050781 72.425781 34.738281 57.308594 35.601562 C 53.046875 35.839844 48.792969 36.148438 44.535156 36.425781 C 40.007812 36.714844 35.363281 36.863281 30.914062 37.664062 C 28.734375 38.054688 28.890625 40.910156 31.164062 41.027344 C 35.1875 41.234375 39.292969 40.878906 43.3125 40.664062 C 47.320312 40.445312 51.339844 40.292969 55.351562 40.109375 C 62.910156 39.761719 70.476562 39.460938 78.039062 39.175781 C 92.996094 38.613281 107.960938 38.234375 122.929688 38 C 127.015625 37.933594 131.105469 37.882812 135.191406 37.84375 C 140.070312 37.796875 144.980469 37.828125 149.835938 37.367188 C 152.660156 37.101562 152.078125 33.347656 149.410156 33.195312 " fill-opacity="1" fill-rule="nonzero"/><path fill="#000000" d="M 109.515625 43.203125 C 105.027344 42.773438 100.402344 42.898438 95.890625 42.949219 C 91.257812 43.003906 86.636719 43.148438 82.011719 43.347656 C 73.175781 43.722656 64.347656 44.445312 55.59375 45.558594 C 53.117188 45.875 53.628906 49.082031 56.109375 48.867188 C 65.054688 48.097656 74.03125 47.519531 83.015625 47.183594 C 91.714844 46.863281 100.410156 47.136719 109.105469 46.917969 C 111.5 46.859375 112.042969 43.441406 109.515625 43.203125 " fill-opacity="1" fill-rule="nonzero"/><path fill="#000000" d="M 92.152344 53.515625 C 84.707031 52.742188 76.675781 53.429688 69.484375 55.253906 C 68.464844 55.511719 67.695312 56.207031 67.867188 57.183594 C 68.019531 58.0625 69.078125 58.753906 70.113281 58.578125 C 73.945312 57.917969 77.773438 57.414062 81.675781 57.160156 C 83.382812 57.050781 85.09375 56.992188 86.808594 56.980469 C 88.550781 56.972656 90.367188 57.117188 92.101562 56.96875 C 94.679688 56.75 94.730469 53.785156 92.152344 53.515625 " fill-opacity="1" fill-rule="nonzero"/><path fill="#000000" d="M 83.742188 62.621094 C 82.675781 62.386719 81.605469 62.414062 80.519531 62.40625 C 79.425781 62.402344 78.28125 62.945312 78.195312 63.992188 C 78.121094 64.871094 78.863281 66 80.035156 65.992188 C 81.160156 65.988281 82.277344 66.054688 83.378906 65.863281 C 84.203125 65.71875 84.964844 65.121094 85.011719 64.359375 C 85.054688 63.664062 84.597656 62.808594 83.742188 62.621094 " fill-opacity="1" fill-rule="nonzero"/></svg>